<?xml version="1.0" standalone="no"?>
<!DOCTYPE svg PUBLIC "-//W3C//DTD SVG 20010904//EN"
 "http://www.w3.org/TR/2001/REC-SVG-20010904/DTD/svg10.dtd">
<svg version="1.0" xmlns="http://www.w3.org/2000/svg"
 width="250.000000pt" height="250.000000pt" viewBox="0 0 250.000000 250.000000"
 preserveAspectRatio="xMidYMid meet">
<metadata>
Created by potrace 1.14, written by Peter Selinger 2001-2017
</metadata>
<g transform="translate(0.000000,250.000000) scale(0.100000,-0.100000)"
fill="#000000" stroke="none">
<path d="M810 1552 c-52 -25 -164 -136 -281 -278 -57 -69 -105 -121 -107 -115
-2 5 11 42 28 83 85 196 92 261 29 293 -75 40 -209 -7 -274 -95 -72 -98 -44
-220 50 -220 41 0 93 34 101 65 10 39 -2 41 -15 2 -19 -58 -84 -75 -126 -32
-29 29 -33 83 -10 138 47 113 201 184 257 119 37 -43 33 -66 -44 -266 -27 -70
-46 -131 -43 -134 15 -15 66 31 148 133 163 202 280 305 350 305 15 0 27 5 27
10 0 16 -51 11 -90 -8z"/>
<path d="M1422 1544 c-72 -19 -104 -37 -141 -79 -34 -39 -41 -84 -15 -106 13
-11 14 -9 9 14 -9 36 20 81 74 118 59 38 110 52 198 53 58 0 78 -4 100 -20 32
-24 40 -62 23 -104 -16 -39 -53 -55 -127 -54 -64 1 -85 -11 -35 -21 81 -17
109 -62 77 -122 -39 -72 -140 -112 -203 -79 -60 31 -59 47 5 128 32 40 92 107
135 150 42 43 72 81 67 84 -34 21 -92 -36 -213 -209 -26 -37 -52 -65 -56 -62
-5 3 -11 19 -15 35 -13 59 -51 51 -89 -19 -29 -54 -34 -108 -11 -117 8 -3 35
6 60 20 25 15 45 22 45 16 0 -22 65 -50 116 -50 156 0 267 119 186 200 l-28
28 39 12 c115 34 119 158 6 190 -48 14 -144 11 -207 -6z m-136 -320 c5 -26 1
-35 -26 -57 -17 -15 -36 -25 -41 -21 -15 9 -10 53 12 96 18 35 23 39 35 27 7
-8 16 -28 20 -45z"/>
<path d="M702 1394 c2 -11 11 -20 22 -22 13 -3 17 1 14 14 -2 11 -11 20 -22
22 -13 3 -17 -1 -14 -14z"/>
<path d="M816 1375 c-10 -15 -26 -25 -41 -25 -30 0 -41 -16 -19 -28 14 -8 14
-13 4 -33 -30 -58 -127 -138 -151 -124 -15 10 -1 43 42 105 42 61 46 70 26 70
-29 0 -97 -105 -97 -148 0 -49 55 -52 109 -6 29 24 31 24 31 6 0 -47 70 -54
128 -14 l27 20 18 -24 c10 -13 28 -24 40 -24 39 0 127 62 149 105 6 11 -12 -1
-40 -28 -60 -55 -98 -73 -118 -56 -17 14 -18 48 -1 53 6 3 24 7 39 10 15 4 44
20 63 38 44 38 45 71 2 76 -24 3 -38 -6 -83 -55 -30 -32 -66 -70 -80 -85 -36
-38 -91 -55 -112 -35 -13 14 -12 21 12 70 14 30 33 60 41 67 7 6 47 17 87 23
l73 12 -57 3 c-54 3 -71 13 -48 27 17 10 11 25 -9 25 -10 0 -26 -11 -35 -25z
m224 -64 c-19 -36 -92 -82 -107 -68 -9 10 77 87 97 87 17 0 19 -3 10 -19z"/>
<path d="M1960 1280 c-63 -60 -119 -110 -123 -110 -23 0 -15 37 18 92 l38 61
-24 19 c-30 23 -70 17 -115 -17 -72 -55 -109 -129 -79 -159 24 -23 40 -20 80
15 20 18 39 29 42 25 3 -3 3 -6 -1 -6 -4 0 -2 -9 4 -20 15 -28 49 -25 82 7
l29 28 25 -33 c31 -39 52 -40 119 -7 49 23 50 24 59 4 11 -22 45 -34 74 -25
28 9 98 66 119 96 9 14 -7 3 -37 -24 -59 -52 -91 -69 -115 -60 -21 8 -19 53 3
60 82 25 141 75 128 109 -18 48 -140 -29 -169 -108 -6 -16 -55 -42 -64 -34 -6
7 27 151 37 161 14 14 12 36 -3 36 -7 0 -64 -49 -127 -110z m-108 46 c1 -17
-96 -137 -122 -151 -82 -43 -33 75 56 134 46 30 65 35 66 17z m186 -80 c-15
-56 -38 -77 -65 -60 -10 6 -19 23 -21 38 -3 21 7 37 45 74 46 46 48 46 51 22
1 -14 -3 -47 -10 -74z m232 70 c0 -17 -54 -60 -88 -71 -21 -6 -23 -5 -13 13
14 27 69 72 87 72 8 0 14 -7 14 -14z"/>
</g>
</svg>
